<svg viewBox="24 765 170 213" xmlns="http://www.w3.org/2000/svg"><g fill="#fff" fill-rule="evenodd" opacity=".2"><path d="m67.272 904.03c3.782 0 7.338-1.478 10.01-4.162 1.832-1.835 2.997-4.068 3.612-6.415l7.434 7.455c2.672 2.684 6.228 4.16 10.006 4.16 3.783 0 7.335-1.476 10.006-4.16 2.675-2.68 4.147-6.248 4.147-10.04 0-3.794-1.472-7.358-4.147-10.042l-6.386-6.408c2.384-.632 4.592-1.832 6.386-3.632 2.675-2.684 4.147-6.248 4.147-10.043 0-3.79-1.472-7.36-4.147-10.04l-8.89-8.92c2.387-.632 4.595-1.832 6.39-3.632 2.674-2.68 4.146-6.243 4.146-10.038s-1.472-7.36-4.147-10.04l-25.094-25.18v-24.343c0-1.96-1.585-3.55-3.538-3.55s-3.538 1.59-3.538 3.55v18.886c-5.127-2.003-11.362-.994-15.366 3.02-4.39 4.414-5.227 11-2.622 16.302-2.746.487-5.357 1.744-7.388 3.784-4.36 4.378-5.215 10.9-2.682 16.185-2.756.53-5.297 1.86-7.324 3.894-4.36 4.38-5.22 10.904-2.682 16.19-2.76.528-5.297 1.86-7.324 3.894-2.675 2.68-4.147 6.248-4.147 10.04 0 3.794 1.472 7.358 4.147 10.042l28.985 29.082c2.67 2.684 6.226 4.16 10.005 4.16zm-3.966-108.553c1.337-1.338 3.113-2.077 5.003-2.077s3.668.74 5.005 2.077l1.39 1.395 26.13 26.22c1.338 1.342 2.074 3.124 2.074 5.02s-.737 3.678-2.074 5.02c-2.675 2.68-7.335 2.68-10.006 0l-27.522-27.612c-2.756-2.77-2.756-7.274 0-10.043zm-10.01 20.086c1.338-1.343 3.117-2.08 5.007-2.08s3.665.737 5.003 2.08l40.03 40.16c1.34 1.343 2.074 3.125 2.074 5.02 0 1.9-.736 3.682-2.073 5.024-2.672 2.68-7.335 2.68-10.006 0l-15.567-15.62-19.46-19.525-.007-.007-5-5.013c-2.756-2.77-2.756-7.274 0-10.04zm-10.006 20.08c1.338-1.34 3.114-2.078 5.007-2.078 1.885 0 3.662.734 4.996 2.07l19.467 19.53 30.577 30.684c1.338 1.338 2.073 3.12 2.073 5.02 0 1.895-.736 3.677-2.073 5.018-2.672 2.68-7.335 2.68-10.006 0l-16.04-16.092c0-.004-.005-.007-.008-.01l-14.493-14.542-19.497-19.56c-2.76-2.768-2.76-7.273-.003-10.042zm-12.08 25.1c0-1.895.736-3.677 2.074-5.02 1.338-1.337 3.114-2.076 5.003-2.076 1.893 0 3.67.74 5.003 2.077l2.042 2.048 26.958 27.048c2.745 2.77 2.745 7.263-.01 10.03-2.673 2.68-7.336 2.683-10.01 0l-28.986-29.083c-1.338-1.342-2.074-3.124-2.074-5.024zm148.503-6.993c0 1.96 1.58 3.55 3.538 3.55 1.954 0 3.54-1.59 3.54-3.55 0-25.66-10.676-40.783-17.055-49.817-1.86-2.638-4.175-5.918-4.175-6.983v-28.4c0-1.96-1.585-3.55-3.538-3.55-1.956 0-3.538 1.59-3.538 3.55v28.4c0 3.323 2.296 6.582 5.48 11.087 6.27 8.885 15.75 22.312 15.75 45.713zm-102.505 110.05c-1.953 0-3.54 1.59-3.54 3.55v7.1c0 1.96 1.587 3.55 3.54 3.55 1.952 0 3.538-1.59 3.538-3.55v-7.1c0-1.96-1.586-3.55-3.538-3.55z"/><path d="m171.058 857.896c-8.32-5.566-34.458-20.774-35.76-21.524-2.364-1.182-4.99-1.018-7.388.473-5.173 3.205-8.347 12.006-8.347 16.905 0 6.82 4.77 10.966 9.822 15.354 1.752 1.52 3.56 3.095 5.368 4.906l17.69 17.75c1.172 1.18 2.28 2.29 2.432 2.623.064.2.07.955.07 1.697-.834 2.244-7.37 9.74-12.995 15.393l-39.03 35.606c-1.03 1.015-3.202 2.52-4.586 2.52h-31.844c-3.902 0-7.076-3.184-7.076-7.1s3.174-7.1 7.076-7.1h24.768c4.86 0 9.107-4.122 9.578-4.59l24.767-24.85c1.38-1.388 1.38-3.632 0-5.02-1.383-1.388-3.623-1.388-5.003 0l-24.757 24.84c-1.03 1.015-3.202 2.52-4.585 2.52h-35.382c-3.903 0-7.077-3.184-7.077-7.1s3.173-7.1 7.076-7.1h28.306c1.953 0 3.538-1.59 3.538-3.55s-1.585-3.55-3.538-3.55h-38.921c-3.9 0-7.075-3.184-7.075-7.1 0-1.754.64-3.433 1.8-4.732 1.306-1.463 1.182-3.707-.272-5.017-1.458-1.31-3.694-1.18-4.996.278-2.328 2.606-3.61 5.968-3.61 9.472 0 7.32 5.567 13.29 12.664 14.05-1.272 2.13-2.047 4.59-2.047 7.25 0 7.32 5.565 13.29 12.663 14.05-1.274 2.13-2.05 4.59-2.05 7.25 0 7.83 6.35 14.2 14.154 14.2h31.844c4.862 0 9.107-4.122 9.458-4.473l39.04-35.618c15.19-15.24 15.19-19.018 15.19-20.26 0-4.712-.577-5.6-4.575-9.61l-17.69-17.75c-1.986-1.996-3.982-3.724-5.74-5.255-4.848-4.213-7.377-6.57-7.377-9.986 0-4.48 3.807-11.03 5.3-11.13.27.156 27.053 15.737 35.195 21.183 9.15 6.12 19.655 15.755 19.655 36.096 0 15.236-11.942 35.894-19.843 49.56-5.647 9.767-8.36 14.606-8.36 17.89v7.1c0 1.96 1.585 3.55 3.538 3.55s3.538-1.59 3.538-3.55v-7.062c.145-1.803 4-8.477 7.405-14.363 8.775-15.183 20.798-35.976 20.798-53.126 0-23.977-13.017-35.454-22.808-42.004z"/></g></svg>