<svg enable-background="new 0 0 59 59" viewBox="0 0 59 59" xmlns="http://www.w3.org/2000/svg"><path d="m20.187 28.313c-.391-.391-1.023-.391-1.414 0s-.391 1.023 0 1.414l9.979 9.979c.186.189.44.294.706.294.007 0 .014-.004.021-.004s.013.004.021.004c.333 0 .613-.173.795-.423l9.891-9.891c.391-.391.391-1.023 0-1.414s-1.023-.391-1.414 0l-8.272 8.272v-35.544c0-.553-.447-1-1-1s-1 .447-1 1v35.628z"/><path d="m36.5 16c-.553 0-1 .447-1 1s.447 1 1 1h13v39h-40v-39h13c.553 0 1-.447 1-1s-.447-1-1-1h-15v43h44v-43z"/></svg>