<svg viewBox="130 29 59 51" xmlns="http://www.w3.org/2000/svg"><g fill="#0065b6" fill-rule="evenodd"><path d="m170.907 74.557c-.512-.124-1.03.175-1.158.662l-.956 3.64c-.13.49.183.983.695 1.105.077.02.155.028.23.028.43 0 .818-.276.927-.69l.956-3.64c.128-.49-.184-.984-.696-1.106zm-11.697-18.237c.124 0 .25-.022.365-.068l10.51-4.145c.488-.192.72-.725.517-1.19-.2-.464-.762-.683-1.248-.492l-10.144 4-26.753-10.548v-.303c0-.502-.428-.91-.955-.91-.528 0-.956.408-.956.91v.91c0 .37.233.702.59.842l27.71 10.926c.116.046.24.07.364.07zm11.367 9.33c-.234-.452-.805-.638-1.28-.415-1.814.855-4.845 1.85-9.13 1.985v-8.168c0-.502-.43-.91-.957-.91s-.955.408-.955.91v8.16c-11.864-.36-15.693-7.21-16.243-8.35v-6.182c0-.503-.428-.91-.956-.91-.527 0-.955.407-.955.91v6.372c0 .116.024.23.07.34.165.393 4.232 9.675 19.04 9.675 5.176 0 8.803-1.196 10.934-2.2.474-.222.668-.768.433-1.218zm2.965 9.79c-.528 0-.955.408-.955.91v2.732c0 .503.427.91.955.91.53 0 .956-.407.956-.91v-2.73c0-.504-.427-.91-.956-.91z"/><path d="m186.92 42.664c-.53 0-.956.408-.956.91v.3l-11.466 4.498v-1.646l12.786-5.042c.357-.14.59-.472.59-.84 0-.37-.233-.7-.59-.842l-27.71-10.926c-.233-.092-.495-.092-.73 0l-27.707 10.926c-.358.14-.59.472-.59.84 0 .37.232.702.59.842l27.708 10.926c.117.046.24.07.365.07s.25-.024.365-.07l10.02-3.95c.488-.192.72-.724.517-1.19-.2-.464-.76-.684-1.248-.492l-9.654 3.805-25.21-9.94 25.21-9.94 25.21 9.94-10.97 4.326-10.507-3.74c.056-.19.09-.384.09-.587 0-1.53-1.68-2.73-3.823-2.73s-3.822 1.2-3.822 2.73 1.68 2.73 3.822 2.73c.957 0 1.81-.247 2.473-.648l10.904 3.88v22.43c-1.11.378-1.91 1.378-1.91 2.564 0 1.505 1.285 2.73 2.865 2.73s2.867-1.225 2.867-2.73c0-1.187-.803-2.187-1.912-2.565v-5.168c2.743-1.973 3.726-4.6 3.77-4.717.033-.095.052-.197.052-.298v-6.37c0-.503-.427-.91-.956-.91-.528 0-.955.407-.955.91v6.204c-.167.386-.74 1.576-1.912 2.75v-11.292l12.785-5.013c.358-.14.59-.473.59-.842v-.91c0-.503-.426-.91-.954-.91zm-27.71-.91c-1.166 0-1.91-.54-1.91-.91 0-.373.744-.91 1.91-.91 1.167 0 1.91.538 1.91.91 0 .37-.743.91-1.91.91zm14.332 30.955c-.527 0-.955-.41-.955-.91 0-.503.428-.912.955-.912.528 0 .956.41.956.91 0 .502-.428.91-.956.91zm3.793 2.511c-.127-.488-.647-.786-1.157-.663-.513.122-.824.617-.696 1.105l.955 3.64c.11.415.498.69.926.69.077 0 .155-.007.232-.027.513-.122.824-.615.696-1.104l-.955-3.64z"/></g></svg>