<svg viewBox="130 35 53 41" xmlns="http://www.w3.org/2000/svg"><path d="m181.48 72.793-1.99-6.437c-.047-.132-.142-.264-.236-.352-1.232-3.483-4.263-6.172-8.1-7.098l-.568-.088c-.853-.22-1.8.044-2.416.705-2.084 2.204-4.737 2.38-7.53 2.38-2.796 0-5.448-.176-7.532-2.38-.616-.66-1.564-.926-2.416-.705l-.57.132c-2.888.705-5.35 2.425-6.914 4.717h-5.968c-.048 0-.048 0-.095-.044 0-.044-.047-.088-.047-.176l1.23-4.1c1.09-3.22 3.175-4.19 7.248-5.158.19-.046.332-.134.427-.222.33.265.71.485 1.09.66.14.09.283.09.425.09.332 0 .663-.177.853-.485.238-.44.048-.97-.425-1.19-2.18-1.06-3.742-4.057-3.742-7.143 0-2.733 2.415-4.98 5.352-4.98.568 0 1.09.087 1.61.22-.52 1.19-.805 2.468-.805 3.835 0 7.538 4.88 13.887 10.658 13.887 5.684 0 10.704-6.48 10.704-13.887 0-5.51-4.784-9.964-10.704-9.964-3.742 0-7.058 1.81-8.953 4.542-.805-.265-1.657-.397-2.51-.397-2.558 0-4.83 1.28-6.11 3.174-.095-.09-.19-.133-.284-.177-.71-.353-1.42-.485-2.226-.485-2.652-.044-4.784 1.94-4.784 4.41 0 1.41.427 2.732 1.09 3.79-2.18.53-4.12 1.323-5.02 4.012l-.76 2.557c-.14.44-.046.926.238 1.278.284.397.805.618 1.326.618h3.647c-.046.176-.14.352-.188.53l-1.232 4.143c-.19.573-.047 1.19.38 1.675.378.486.947.75 1.61.75h5.02c-.14.31-.236.618-.33.926l-1.99 6.48c-.19.75-.048 1.544.473 2.16.52.618 1.28.97 2.084.97h36.425c.805 0 1.61-.352 2.084-.97.52-.616.71-1.41.474-2.203zm-28.278-31.523c.048-.043.095-.087.142-.175.048-.044.048-.132.095-.176 1.467-2.47 4.31-4.145 7.578-4.145 3.93 0 7.247 2.424 8.383 5.73-1.656.31-3.41-.308-4.45-1.63-.332-.397-.9-.485-1.327-.177-.19.132-.284.265-.332.44-.046.045-.046.09-.093.133-1.327 2.514-5.78 3.572-10.847 2.647.142-.926.426-1.808.852-2.646zm2.653 4.72c3.79 0 6.915-1.104 8.526-3.176 1.185.97 2.653 1.5 4.216 1.5.38 0 .805-.045 1.184-.133.048.266.048.486.048.75 0 6.48-4.12 12.168-8.81 12.168-4.5 0-8.432-5.246-8.763-11.418 1.23.22 2.463.31 3.6.31zm-22.452 10.58.663-2.205c.57-1.808 1.753-2.337 4.12-2.866.143-.045.285-.09.38-.177.237.176.426.31.71.44.143.09.285.09.427.09.33 0 .663-.177.852-.486.237-.44.048-.97-.378-1.19-1.232-.617-2.132-2.337-2.132-4.1 0-1.5 1.28-2.69 2.89-2.69.52 0 .947.09 1.373.31.142.043.237.087.38.087-.238.662-.38 1.367-.38 2.116 0 2.513.9 4.982 2.32 6.7-2.84.663-5.35 1.544-7.01 3.97h-4.215zm46.135 17.37c-.095.087-.284.264-.616.264h-36.424c-.332 0-.522-.177-.616-.265-.142-.177-.19-.442-.142-.618l1.99-6.437c.946-3.042 3.55-5.422 6.867-6.216l.568-.133c.143-.044.38.044.522.176 2.605 2.778 5.826 2.998 8.952 2.998 3.125 0 6.346-.22 8.95-2.997.143-.132.333-.22.57-.176l.568.132c3.268.793 5.92 3.173 6.868 6.215l.852 2.734c.048.13.095.22.19.307l1.042 3.35c.047.22 0 .486-.142.662z" fill="#43aacb" fill-rule="evenodd"/></svg>