<svg xmlns="http://www.w3.org/2000/svg" viewBox="135 38 44 40"><g fill="#073992" fill-rule="evenodd"><path d="M162.513 72.78c-1.776 0-3.485-.394-5.013-1.14h-10.596c-.972 0-1.763-.738-1.763-1.645V64.91c0-.91.792-1.647 1.764-1.647h4.79c-.014-.2-.02-.403-.02-.605 0-.76.088-1.507.26-2.23h-9.91v-2.772h9.798c.84 0 1.52-.635 1.52-1.417 0-.784-.68-1.42-1.52-1.42h-9.798v-2.77h22.7c.787 0 1.456.485 1.68 1.152 1.13.403 2.18.985 3.12 1.728v-1.234c0-.58-.122-1.137-.338-1.646h3.88c.837 0 1.517-.635 1.517-1.418 0-.783-.68-1.418-1.518-1.418h-.425v-8.378h.425c.838 0 1.518-.635 1.518-1.418 0-.783-.68-1.418-1.518-1.418h-26.16c-2.647 0-4.8 2.01-4.8 4.482v5.085c0 .58.12 1.137.337 1.647h-3.88c-.837 0-1.517.634-1.517 1.417 0 .784.68 1.42 1.518 1.42h.425v8.377h-.425c-.838 0-1.518.635-1.518 1.418 0 .783.68 1.417 1.518 1.417h3.88c-.217.51-.338 1.066-.338 1.646v5.086c0 2.47 2.153 4.482 4.8 4.482h21.702l-2.445-2.283c-1.17.39-2.396.588-3.65.588zM145.14 42.483c0-.908.792-1.646 1.764-1.646h22.7v2.77h-9.8c-.837 0-1.517.636-1.517 1.42 0 .78.68 1.416 1.518 1.416h9.8v2.772h-22.7c-.973 0-1.764-.74-1.764-1.647v-5.085z"/><path d="M178.204 73.996l-7.608-7.104c2.05-3.366 1.54-7.733-1.53-10.6-3.682-3.44-9.674-3.44-13.357 0-3.683 3.438-3.683 9.035 0 12.473 3.07 2.868 7.746 3.344 11.35 1.43l7.608 7.103c.975.91 2.56.91 3.536 0 .975-.91.975-2.39 0-3.302zm-11.02-6.987c-2.644 2.47-6.948 2.47-9.594 0-2.645-2.472-2.645-6.49 0-8.962 2.646-2.47 6.95-2.47 9.595 0 2.645 2.47 2.645 6.49 0 8.96z"/></g></svg>
