<svg xmlns="http://www.w3.org/2000/svg" width="244" height="35" viewBox="0 0 244 35"><g fill="none" fill-rule="evenodd"><path fill="#FFF" d="M31.948 7.235l-2.52 1.918c-3-3.687-6.857-5.53-11.568-5.53-3.84 0-7.15 1.337-9.924 4.013-2.776 2.676-4.163 5.954-4.163 9.834s1.357 7.12 4.073 9.722c2.715 2.602 6.113 3.902 10.194 3.902 4.56 0 8.357-1.754 11.387-5.262l2.52 1.918c-1.59 2.08-3.6 3.664-6.03 4.75-2.43 1.084-5.116 1.627-8.057 1.627-5.13 0-9.332-1.606-12.602-4.817C1.988 26.1.352 22.04.352 17.135c0-3.032.758-5.834 2.273-8.406 1.515-2.573 3.616-4.587 6.3-6.044C11.613 1.23 14.5.5 17.59.5c3.09 0 5.866.58 8.327 1.74 2.46 1.16 4.47 2.825 6.03 4.995zm5.086 10.213c0-3.092.75-5.947 2.25-8.563 1.5-2.616 3.556-4.668 6.166-6.154C48.06 1.245 50.904.5 53.98.5c3.075 0 5.94.737 8.596 2.208 2.656 1.472 4.74 3.51 6.256 6.11 1.516 2.602 2.273 5.426 2.273 8.474 0 3.047-.75 5.87-2.25 8.473-1.5 2.6-3.563 4.645-6.19 6.132-2.624 1.487-5.475 2.23-8.55 2.23-3.076 0-5.934-.736-8.575-2.208-2.64-1.472-4.718-3.5-6.233-6.088-1.516-2.587-2.273-5.38-2.273-8.384zm30.696-.134c0-3.836-1.343-7.076-4.03-9.722-2.684-2.646-5.917-3.97-9.698-3.97-3.87 0-7.104 1.33-9.7 3.992-2.595 2.66-3.893 5.902-3.893 9.722 0 3.82 1.335 7.054 4.005 9.7 2.67 2.646 5.896 3.97 9.677 3.97 3.78 0 7-1.294 9.654-3.88 2.656-2.587 3.984-5.858 3.984-9.812zm9.856 16.01V1.304h.72l21.47 24.528V1.304h3.195v32.02h-.72L80.918 9.108v24.216h-3.33zm30.066-28.9v-3.12h17.733v3.12h-7.2v28.9h-3.287v-28.9h-7.246zm54.415-3.12h3.78l7.743 12.487 7.83-12.486h3.737l-9.632 15.52 10.262 16.5h-3.78L173.59 19.9l-8.417 13.424h-3.78l10.306-16.5-9.633-15.52zm25.925 3.12v-3.12h17.734v3.12h-7.202v28.9h-3.285v-28.9h-7.248zm20.974 13.024c0-3.092.75-5.947 2.25-8.563 1.5-2.616 3.556-4.668 6.167-6.154 2.61-1.486 5.453-2.23 8.53-2.23 3.074 0 5.94.737 8.596 2.208 2.654 1.472 4.74 3.51 6.255 6.11 1.515 2.602 2.273 5.426 2.273 8.474 0 3.047-.75 5.87-2.25 8.473-1.5 2.6-3.564 4.645-6.19 6.132-2.625 1.487-5.475 2.23-8.55 2.23-3.077 0-5.935-.736-8.575-2.208-2.64-1.472-4.72-3.5-6.234-6.088-1.516-2.587-2.274-5.38-2.274-8.384zm30.696-.134c0-3.836-1.343-7.076-4.028-9.722-2.686-2.646-5.92-3.97-9.7-3.97-3.87 0-7.103 1.33-9.7 3.992-2.594 2.66-3.892 5.902-3.892 9.722 0 3.82 1.335 7.054 4.006 9.7 2.67 2.646 5.896 3.97 9.676 3.97 3.78 0 7-1.294 9.655-3.88 2.654-2.587 3.982-5.858 3.982-9.812z"/><path fill="#43AACB" d="M130.145.537H157.8v6.448h-27.655z"/><path fill="#007FC1" d="M130.145 13.97H157.8v6.448h-27.655z"/><path fill="#073992" d="M130.145 26.865H157.8v6.448h-27.655z"/></g></svg>