<svg viewBox="0 5 91 14" xmlns="http://www.w3.org/2000/svg"><g fill="none" fill-rule="evenodd"><path d="m11.915 7.687-.94.713c-1.12-1.37-2.557-2.054-4.315-2.054-1.43 0-2.665.496-3.7 1.49s-1.553 2.212-1.553 3.653c0 1.44.506 2.644 1.52 3.61 1.012.966 2.28 1.45 3.8 1.45 1.702 0 3.118-.652 4.248-1.955l.94.712c-.593.773-1.343 1.36-2.25 1.764-.906.404-1.907.606-3.004.606-1.913 0-3.48-.597-4.7-1.79-1.22-1.192-1.83-2.7-1.83-4.52 0-1.128.284-2.17.85-3.124.564-.955 1.347-1.703 2.35-2.244 1-.54 2.078-.812 3.23-.812 1.153 0 2.188.215 3.106.646.917.43 1.667 1.05 2.25 1.855zm1.897 3.794c0-1.148.28-2.208.84-3.18s1.325-1.734 2.3-2.286c.972-.552 2.033-.828 3.18-.828s2.215.273 3.206.82c.99.547 1.768 1.303 2.333 2.27.566.966.85 2.015.85 3.147 0 1.13-.28 2.18-.84 3.147-.56.966-1.33 1.725-2.31 2.277-.978.553-2.04.83-3.188.83-1.147 0-2.213-.275-3.198-.82-.984-.548-1.76-1.302-2.325-2.262-.566-.96-.848-2-.848-3.114zm11.448-.05c0-1.424-.5-2.627-1.503-3.61-1-.983-2.207-1.474-3.617-1.474-1.443 0-2.65.494-3.617 1.482-.968.988-1.452 2.192-1.452 3.61 0 1.42.5 2.62 1.495 3.604.996.983 2.2 1.474 3.61 1.474s2.61-.48 3.6-1.44c.99-.962 1.485-2.176 1.485-3.645zm3.676 5.948v-11.895h.27l8.005 9.11v-9.11h1.193v11.894h-.268l-7.957-8.995v8.995h-1.242zm11.214-10.735v-1.16h6.613v1.16h-2.686v10.734h-1.227v-10.734zm20.293-1.16h1.41l2.887 4.638 2.92-4.638h1.394l-3.592 5.765 3.827 6.128h-1.41l-3.14-4.986-3.14 4.986h-1.41l3.845-6.13-3.592-5.764zm9.67 1.16v-1.16h6.613v1.16h-2.686v10.734h-1.226v-10.734h-2.702zm7.82 4.837c0-1.148.28-2.208.84-3.18s1.326-1.734 2.3-2.286 2.034-.828 3.18-.828c1.148 0 2.217.273 3.207.82s1.768 1.303 2.333 2.27c.566.966.848 2.015.848 3.147 0 1.13-.28 2.18-.838 3.147-.56.966-1.33 1.725-2.308 2.277-.98.553-2.043.83-3.19.83s-2.213-.275-3.197-.82c-.985-.548-1.76-1.302-2.325-2.262s-.848-2-.848-3.114zm11.45-.05c0-1.424-.502-2.627-1.503-3.61-1.002-.983-2.208-1.474-3.618-1.474-1.443 0-2.65.494-3.617 1.482-.968.988-1.452 2.192-1.452 3.61 0 1.42.498 2.62 1.494 3.604.996.983 2.2 1.474 3.61 1.474s2.61-.48 3.6-1.44c.99-.962 1.485-2.176 1.485-3.645z" fill="#000"/><path d="m48.538 5.2h10.314v2.395h-10.314z" fill="#43aacb"/><path d="m48.538 10.19h10.314v2.394h-10.314z" fill="#007fc1"/><path d="m48.538 14.98h10.314v2.394h-10.314z" fill="#073992"/></g></svg>